<?xml version="1.0" standalone="no"?>
<!DOCTYPE svg PUBLIC "-//W3C//DTD SVG 20010904//EN"
 "http://www.w3.org/TR/2001/REC-SVG-20010904/DTD/svg10.dtd">
<svg version="1.0" xmlns="http://www.w3.org/2000/svg"
 width="866.000000pt" height="650.000000pt" viewBox="0 0 866.000000 650.000000"
 preserveAspectRatio="xMidYMid meet">

<g transform="translate(0.000000,650.000000) scale(0.100000,-0.100000)"
fill="#000000" stroke="none">
<path d="M4110 4574 c-194 -30 -417 -122 -581 -240 -86 -63 -228 -201 -289
-284 -280 -377 -338 -879 -150 -1310 22 -51 39 -94 37 -95 -1 -1 -83 -53 -182
-115 -99 -61 -190 -121 -202 -133 -30 -27 -30 -71 0 -101 28 -28 31 -28 442
-57 l310 -22 75 -49 c142 -94 314 -166 490 -204 132 -29 411 -26 549 4 179 40
328 103 480 203 48 32 85 49 105 49 106 0 689 52 706 62 11 7 24 24 28 38 18
52 -1 74 -156 171 -81 51 -170 107 -199 125 l-52 33 34 75 c76 167 115 351
115 540 0 353 -133 674 -381 925 -307 310 -741 451 -1179 385z m307 -755 c416
-56 748 -320 838 -668 42 -164 27 -326 -49 -511 -4 -11 38 -42 159 -119 91
-58 163 -106 161 -109 -3 -2 -123 -14 -268 -26 l-263 -23 -68 -52 c-97 -73
-234 -136 -373 -173 -106 -27 -135 -31 -274 -32 -176 -1 -267 14 -411 68 -294
110 -511 335 -586 606 -24 89 -24 280 1 370 65 237 236 439 474 559 195 98
442 140 659 110z"/>
<path d="M3835 3300 c-69 -16 -119 -66 -130 -130 -5 -32 -2 -50 17 -87 29 -58
63 -84 121 -90 86 -10 154 34 176 114 30 108 -75 219 -184 193z"/>
<path d="M4644 3300 c-140 -31 -168 -227 -42 -291 139 -71 288 68 221 208 -29
61 -110 99 -179 83z"/>
</g>
</svg>
